<svg xmlns="http://www.w3.org/2000/svg" viewBox="0 0 640 360" preserveAspectRatio="xMinYMin meet" fill="none" stroke="#111" stroke-linecap="round" stroke-linejoin="round">
<path d="M 544.1 74.8 L 599.8 78.1 L 583.6 81.9 L 596.4 97.9 L 510.7 125.6 L 467.8 131.2 L 449.5 147 L 381.8 152.3 L 331.6 168.7 L 296.4 171.2 L 321.8 177.5 L 309.1 189.6 L 344 201.3 L 321.6 219.8 L 264.9 230.9 L 145 234.2 L 209.4 243.5 L 185.6 269.3 L 168.3 273.2 L 61.1 270.2 L 16 297.1 L 65.7 327.5 L 145.3 341.7 L 205.5 344 L 277.3 339.6 L 280 329.7 L 401.3 307.1 L 343.4 293.7 L 357.3 285.5 L 396.5 285.9 L 417.4 281.2 L 349.8 265.1 L 350.6 255.4 L 408.2 246.5 L 437.3 249 L 463.6 246.2 L 456.4 238.8 L 493.9 230.7 L 453.2 207.6 L 471 202 L 441.2 197.3 L 427.1 183.7 L 488.5 168.4 L 478 151 L 542 125.8 L 597.8 114.4 L 624 92.7 L 606.9 73 L 552.3 72.5 L 563.3 58.3 L 542.5 48.4 L 565.3 25 L 547.8 16 L 515 23.5 L 537.2 34.9 L 522.7 47.2 L 544.1 74.8" stroke-width="5"/>
</svg>
