<svg xmlns="http://www.w3.org/2000/svg" viewBox="0 0 640 360" preserveAspectRatio="xMinYMin meet" fill="none" stroke="#111" stroke-linecap="round" stroke-linejoin="round">
<path d="M 623 20.6 L 622.8 19.2" stroke-width="5"/>
<path d="M 624 23.3 L 623.9 22.9" stroke-width="5"/>
<path d="M 16.9 343.4 L 17 342" stroke-width="5"/>
<path d="M 622.6 17.4 L 622.3 16.2 L 621.9 16" stroke-width="5"/>
<path d="M 622.6 17.9 L 622.6 17.4" stroke-width="5"/>
<path d="M 622.7 18.1 L 622.6 17.9" stroke-width="5"/>
<path d="M 622.8 18.7 L 622.7 18.1" stroke-width="5"/>
<path d="M 623.9 22.9 L 623.6 22.7 L 623.4 22.1" stroke-width="5"/>
<path d="M 623.4 22.1 L 623 20.6" stroke-width="5"/>
<path d="M 622.8 19.2 L 622.8 18.7" stroke-width="5"/>
<path d="M 17.2 335.7 L 17.2 335.6" stroke-width="5"/>
<path d="M 17.2 337.6 L 17.3 337.1" stroke-width="5"/>
<path d="M 17.5 335 L 17.3 333" stroke-width="5"/>
<path d="M 17.5 335.4 L 17.5 335" stroke-width="5"/>
<path d="M 16.5 325.1 L 16.8 324" stroke-width="5"/>
<path d="M 16.2 329.4 L 16.2 326.4 L 16.5 325.1" stroke-width="5"/>
<path d="M 16.9 343.8 L 16.9 343.4" stroke-width="5"/>
<path d="M 17.3 337.8 L 17.2 337.6" stroke-width="5"/>
<path d="M 17 342 L 17 341.2" stroke-width="5"/>
<path d="M 17.3 337.1 L 17.2 336.4 L 17.2 335.7" stroke-width="5"/>
<path d="M 16.7 331.1 L 16.5 330.9 L 16.2 331.1" stroke-width="5"/>
<path d="M 17.2 335.6 L 17.5 335.4" stroke-width="5"/>
<path d="M 17.3 333 L 17.1 332.7 L 17.1 332.2" stroke-width="5"/>
<path d="M 17.3 339.8 L 17.2 339.2 L 17.4 338.7 L 17.3 337.8" stroke-width="5"/>
<path d="M 17.1 332.2 L 16.7 331.1" stroke-width="5"/>
<path d="M 16.2 331.1 L 16.2 331" stroke-width="5"/>
<path d="M 17 341.2 L 17.3 339.8" stroke-width="5"/>
<path d="M 16.8 324 L 16.8 323.7" stroke-width="5"/>
<path d="M 16.2 331 L 16 331 L 16 330.6 L 16.2 329.4" stroke-width="5"/>
<path d="M 16.7 344 L 16.9 343.8" stroke-width="5"/>
<path d="M 17.5 335.4 L 17.5 335.4" stroke-width="5"/>
<path d="M 16.8 323.7 L 16.5 322.3 L 16.6 321" stroke-width="5"/>
</svg>
